<svg version="1.1" id="Layer_1" xmlns="http://www.w3.org/2000/svg" xmlns:xlink="http://www.w3.org/1999/xlink" x="0px" y="0px" width="20" viewBox="0 0 20 22.222" enable-background="new 0 0 288 320" xml:space="preserve" height="22.222"><path fill="#000000" opacity="1.000000" stroke="none" d="M20.069 16.426C19.621 17.434 18.759 17.772 17.787 17.932C16.744 18.105 15.714 17.971 14.687 17.776C14.029 17.652 14.144 17.566 13.904 18.235C13.511 19.331 13.041 20.382 12.185 21.212C11.141 22.223 9.872 22.228 8.823 21.221C8.69 21.093 8.573 20.949 8.453 20.807C8.207 20.516 8.007 20.223 7.559 20.135C7.036 20.032 6.792 19.402 7.067 18.939C7.341 18.479 7.04 18.145 6.916 17.772C6.862 17.608 6.693 17.704 6.578 17.728C5.67 17.919 4.755 18.047 3.825 18.004C3.279 17.978 2.744 17.884 2.236 17.678C1.118 17.225 0.587 16.195 0.856 15.005C1.136 13.766 1.869 12.788 2.683 11.859C3.078 11.409 3.085 11.415 2.678 10.955C1.945 10.127 1.289 9.248 0.957 8.173C0.462 6.575 1.125 5.39 2.744 4.987C3.156 4.884 3.556 4.831 3.897 4.508C4.2 4.221 4.688 4.317 4.991 4.648C5.145 4.817 5.315 4.886 5.53 4.914C5.862 4.958 6.198 4.999 6.519 5.086C6.827 5.17 6.96 5.062 7.052 4.78C7.359 3.829 7.755 2.919 8.372 2.121C8.492 1.966 8.623 1.817 8.761 1.679C9.911 0.533 11.276 0.573 12.365 1.783C13.091 2.589 13.537 3.551 13.9 4.558C13.931 4.645 13.962 4.733 13.982 4.823C14.045 5.099 14.209 5.155 14.472 5.096C15.424 4.881 16.386 4.783 17.363 4.838C17.89 4.867 18.394 4.98 18.874 5.192C19.389 5.419 19.79 5.772 20.055 6.301C20.069 7.293 20.069 8.267 20.052 9.288C19.974 9.391 19.922 9.481 19.854 9.495C19.242 9.619 19.01 10.162 18.656 10.569C18.497 10.752 18.351 10.949 18.173 11.111C17.954 11.311 17.954 11.458 18.163 11.679C18.97 12.532 19.639 13.481 20.069 14.583C20.069 15.187 20.069 15.79 20.069 16.426M7.108 13.316C7.108 13.469 7.223 13.533 7.329 13.603C8.267 14.219 9.246 14.763 10.258 15.25C10.413 15.325 10.554 15.343 10.719 15.265C11.744 14.779 12.729 14.223 13.679 13.605C13.851 13.493 13.919 13.346 13.937 13.145C14.042 12.002 13.998 10.86 13.939 9.718C13.925 9.461 13.825 9.29 13.607 9.154C12.695 8.583 11.759 8.059 10.793 7.585C10.582 7.482 10.408 7.492 10.205 7.592C9.229 8.071 8.282 8.6 7.364 9.183C7.178 9.302 7.106 9.439 7.091 9.658C7.003 10.859 7.001 12.059 7.108 13.316M14.789 14.273C14.678 15.002 14.595 15.737 14.41 16.454C14.355 16.667 14.446 16.758 14.665 16.805C15.254 16.929 15.848 17.017 16.447 17.054C17.06 17.092 17.672 17.072 18.263 16.872C19.093 16.592 19.425 16.029 19.227 15.182C18.947 13.988 18.184 13.089 17.376 12.22C17.243 12.077 17.137 12.148 17.023 12.25C16.386 12.822 15.714 13.351 15.019 13.85C14.89 13.942 14.793 14.047 14.789 14.273M6.286 16.808C6.605 16.801 6.658 16.648 6.583 16.355C6.407 15.661 6.314 14.949 6.232 14.238C6.216 14.102 6.18 13.998 6.066 13.915C5.337 13.383 4.615 12.843 3.95 12.231C3.837 12.127 3.736 12.122 3.623 12.241C2.891 13.009 2.225 13.824 1.889 14.847C1.503 16.022 1.87 16.657 3.066 16.952C3.155 16.974 3.247 16.984 3.338 16.999C4.315 17.15 5.274 17.008 6.286 16.808M6.204 5.986C5.977 5.943 5.749 5.906 5.524 5.857C5.253 5.798 5.026 5.827 4.792 6.017C4.544 6.219 4.197 6.264 3.953 6.048C3.519 5.665 3.091 5.824 2.662 5.983C1.968 6.24 1.683 6.626 1.765 7.359C1.922 8.766 2.865 9.725 3.758 10.745C4.549 10.071 5.312 9.439 6.121 8.865C6.215 8.798 6.218 8.69 6.231 8.585C6.315 7.886 6.397 7.185 6.581 6.505C6.67 6.179 6.599 6.019 6.204 5.986M15.973 5.795C15.529 5.869 15.086 5.945 14.642 6.019C14.421 6.056 14.364 6.181 14.416 6.391C14.582 7.064 14.675 7.75 14.763 8.437C14.787 8.625 14.804 8.82 14.996 8.952C15.711 9.444 16.389 9.984 17.032 10.566C17.167 10.689 17.282 10.693 17.416 10.55C17.756 10.186 18.076 9.809 18.36 9.399C18.463 9.251 18.471 9.103 18.436 8.939C18.355 8.553 18.504 8.26 18.817 8.046C19.2 7.785 19.334 7.46 19.258 6.999C19.138 6.265 18.584 6.024 17.969 5.867C17.334 5.705 16.683 5.77 15.973 5.795M8.834 3.104C8.438 3.735 8.16 4.419 7.923 5.123C7.852 5.336 7.892 5.429 8.113 5.5C8.827 5.733 9.535 5.987 10.221 6.296C10.399 6.376 10.568 6.392 10.755 6.31C11.464 5.998 12.189 5.723 12.931 5.499C13.138 5.436 13.172 5.342 13.106 5.145C12.887 4.496 12.635 3.862 12.292 3.27C12.018 2.798 11.698 2.355 11.238 2.042C10.771 1.725 10.292 1.719 9.805 2.015C9.384 2.271 9.131 2.673 8.834 3.104M7.892 17.437C7.967 17.889 8.018 18.347 8.45 18.639C8.639 18.767 8.773 18.98 8.756 19.197C8.71 19.787 9.085 20.142 9.44 20.496C10.18 21.235 10.958 21.192 11.656 20.412C12.366 19.619 12.769 18.667 13.1 17.675C13.164 17.48 13.119 17.377 12.918 17.315C12.156 17.081 11.407 16.809 10.679 16.483C10.583 16.439 10.488 16.412 10.38 16.462C9.582 16.826 8.746 17.094 7.892 17.437M4.887 11.032C4.752 11.152 4.599 11.257 4.494 11.445C4.994 11.855 5.435 12.319 6.061 12.648C6.061 11.792 6.061 11.006 6.061 10.161C5.611 10.399 5.27 10.703 4.887 11.032M16.25 11.142C15.842 10.795 15.449 10.429 14.963 10.152C14.963 10.996 14.963 11.805 14.963 12.673C15.554 12.293 16.035 11.877 16.484 11.444C16.455 11.297 16.35 11.252 16.25 11.142M12.81 6.535C12.456 6.663 12.102 6.791 11.674 6.945C12.392 7.346 13.036 7.706 13.737 8.098C13.687 7.462 13.581 6.916 13.423 6.38C13.202 6.378 13.034 6.458 12.81 6.535M11.855 15.939C12.093 16.029 12.329 16.124 12.569 16.207C13.432 16.508 13.44 16.508 13.612 15.615C13.664 15.346 13.778 15.072 13.681 14.759C13.038 15.113 12.421 15.45 11.807 15.79C11.735 15.83 11.757 15.881 11.855 15.939M7.66 7.894C8.192 7.59 8.723 7.286 9.303 6.954C8.768 6.704 8.284 6.555 7.803 6.4C7.673 6.358 7.565 6.366 7.539 6.52C7.453 7.027 7.284 7.523 7.299 8.082C7.419 8.02 7.518 7.968 7.66 7.894M8.194 15.25C7.908 15.084 7.623 14.917 7.296 14.726C7.302 15.294 7.433 15.782 7.536 16.273C7.561 16.391 7.642 16.456 7.766 16.421C8.268 16.276 8.769 16.126 9.295 15.842C8.903 15.632 8.57 15.454 8.194 15.25z" stroke-width="0.06944444444444445"/><path fill="#000000" opacity="1.000000" stroke="none" d="M11.713 10.092C12.853 11.217 12.176 12.872 10.892 13.152C10.113 13.321 9.345 12.984 8.951 12.282C8.563 11.591 8.672 10.739 9.221 10.171C9.771 9.602 10.631 9.457 11.322 9.824C11.454 9.893 11.571 9.99 11.713 10.092z" stroke-width="0.06944444444444445"/></svg>